# xmcd
#
# Track frame offsets:
#	150
#	19917
#	37622
#	55490
#	72110
#	88050
#	106017
#	124232
#	136485
#	157700
#	171715
#	189052
#
# Disc length: 2671 seconds
#
# Revision: 0
# Processed by: cddbd v1.5.2PL0 Copyright (c) Steve Scherf et al.
# Submitted via: dBpowerAMP V4.0
#
DISCID=960a6d0c
DTITLE=Willmore Gundersen - Running the race
DYEAR=1900
DGENRE=Christian
TTITLE0=Running the race
TTITLE1=Thank you, Jesus
TTITLE2=Suppertime
TTITLE3=Oh, Lord
TTITLE4=Born again
TTITLE5=Spiritually blind
TTITLE6=It will be worth it all
TTITLE7=You`re invited
TTITLE8=Precious memories
TTITLE9=Undeserved grace
TTITLE10=Willing to come
TTITLE11=He became poor
EXTD=
EXTT0=
EXTT1=
EXTT2=
EXTT3=
EXTT4=
EXTT5=
EXTT6=
EXTT7=
EXTT8=
EXTT9=
EXTT10=
EXTT11=
PLAYORDER=
